<?xml version="1.0" encoding="utf-8"?>
<!-- Generator: Adobe Illustrator 16.0.0, SVG Export Plug-In . SVG Version: 6.00 Build 0)  -->
<!DOCTYPE svg PUBLIC "-//W3C//DTD SVG 1.1//EN" "http://www.w3.org/Graphics/SVG/1.1/DTD/svg11.dtd">
<svg version="1.1" id="Layer_1" xmlns="http://www.w3.org/2000/svg" xmlns:xlink="http://www.w3.org/1999/xlink" x="0px" y="0px"
	 width="390px" height="111px" viewBox="0 0 390 111" enable-background="new 0 0 390 111" xml:space="preserve">
<path d="M134.207,20.972v59.382l-3.173,11.36h-28.79v4.97l-3.173,11.481H65.698V15.567L68.87,4.168h44.538L134.207,20.972z
	 M129.155,23.385L111.621,9.221h-37.58v82.494h23.15V75.263h31.964V23.385z M105.887,61.278h-8.696V29.315h8.696V61.278z"/>
<path d="M197.781,96.768l-3.173,11.398h-65.454V15.567l3.172-11.399h45.595l19.86,30.67V96.768z M192.727,91.714V36.336
	L175.172,9.221h-37.676v82.494h23.15V56.813h8.814v34.901H192.727z M169.46,42.477h-8.814V25.555L169.46,42.477z"/>
<path d="M261.236,96.768l-3.174,11.398h-50.647l-14.689-16.448V48.823l2.116-3.056h-2.116v-30.2l3.166-11.399h45.484l19.86,30.67
	v27.029l-3.174,6.227h3.174V96.768z M256.183,91.714V73.147h-34.901V56.696h34.901v-20.36L238.628,9.221H201.07v20.095h32.55v13.161
	h-32.55v36.179l11.819,13.059H256.183z"/>
<path d="M324.691,96.768l-3.173,11.398h-50.647l-14.689-16.448V48.823l2.115-3.056h-2.115v-30.2l3.165-11.399h45.485l19.859,30.67
	v27.029l-3.173,6.227h3.173V96.768z M319.638,91.714V73.147h-34.9V56.696h34.9v-20.36L302.083,9.221h-37.558v20.095h32.55v13.161
	h-32.55v36.179l11.818,13.059H319.638z"/>
<polygon fill="none" points="10.585,36.017 10.585,56.696 45.486,56.696 45.486,73.147 10.585,73.147 10.585,91.714 53.873,91.714 
	65.816,78.338 65.816,42.477 33.266,42.477 33.266,29.315 65.816,29.315 65.816,9.221 28.124,9.221 "/>
<path d="M70.87,4.168H25.391L2.243,39.479v33.668h3.172l-3.172,6.249v15.79l12.979,12.98H52.89l14.688-16.452l3.291-11.399V37.424
	h-1.176l1.176-3.055V4.168z M65.816,29.315h-32.55v13.161h32.55v35.861L53.873,91.714H10.585V73.147h34.901V56.696H10.585V36.017
	L28.124,9.221h37.692V29.315z"/>
<polygon fill="none" points="383.094,56.813 383.094,9.221 359.709,9.221 359.709,42.477 351.013,42.477 351.013,9.221 
	327.862,9.221 327.862,39.558 345.49,56.833 345.49,91.714 368.522,91.714 368.522,56.813 "/>
<path d="M373.575,96.768V73.265h11.398l3.173-11.397V4.168h-65.454l-3.173,11.399v37.369l17.627,17.273v37.957h25.038l11.388-11.388
	L373.575,96.768z M345.49,91.714V56.833l-17.628-17.276V9.221h23.15v33.256h8.696V9.221h23.385v47.593h-14.571v34.901H345.49z"/>
</svg>
